<svg width="50" height="50" viewBox="0 0 50 50" fill="none" xmlns="http://www.w3.org/2000/svg">
<g clip-path="url(#clip0_1101_803)">
<path d="M14.646 0.175035C11.986 0.300452 10.1695 0.725035 8.58142 1.34879C6.93809 1.98941 5.54496 2.84878 4.15892 4.23983C2.77309 5.63087 1.91934 7.02483 1.2835 8.67108C0.668087 10.2623 0.251003 12.0805 0.133503 14.7419C0.0160033 17.4034 -0.0100384 18.259 0.00308664 25.0482C0.0160033 31.8369 0.0460033 32.688 0.174962 35.355C0.302045 38.0144 0.724962 39.8305 1.34892 41.419C1.99059 43.0625 2.84892 44.455 4.24059 45.8415C5.63204 47.228 7.02496 48.0796 8.67496 48.7165C10.265 49.3311 12.0835 49.75 14.7445 49.8665C17.4056 49.9832 18.262 50.0102 25.0491 49.9971C31.8362 49.9842 32.6908 49.954 35.357 49.8275C38.0237 49.7011 39.83 49.275 41.4191 48.654C43.0627 48.0111 44.4562 47.154 45.8416 45.7621C47.227 44.37 48.0802 42.975 48.7156 41.328C49.3316 39.738 49.7502 37.9196 49.8656 35.2605C49.9823 32.5919 50.0098 31.74 49.9968 24.9521C49.9837 18.164 49.9531 17.313 49.8266 14.6469C49.7002 11.9809 49.2766 10.1705 48.6531 8.58087C48.0106 6.93733 47.1531 5.54587 45.7623 4.15837C44.3712 2.77087 42.975 1.91837 41.3287 1.28441C39.7375 0.668785 37.9202 0.24941 35.2591 0.13441C32.5981 0.01941 31.7416 -0.0103817 24.952 0.00295165C18.1625 0.0158683 17.3125 0.045035 14.646 0.175035ZM14.9381 45.369C12.5006 45.263 11.177 44.858 10.295 44.519C9.12704 44.069 8.29496 43.525 7.416 42.6544C6.53684 41.784 5.99704 40.949 5.541 39.7836C5.1985 38.9015 4.786 37.5794 4.67204 35.1419C4.54809 32.5075 4.52204 31.7165 4.50746 25.0419C4.49288 18.3675 4.5185 17.5773 4.63392 14.9419C4.73809 12.5065 5.14559 11.1815 5.48392 10.2998C5.93392 9.13045 6.476 8.29983 7.3485 7.42149C8.221 6.54295 9.0535 6.00191 10.22 5.54587C11.1012 5.20191 12.4231 4.79295 14.8595 4.67691C17.496 4.55191 18.286 4.52691 24.9595 4.51233C31.6331 4.49774 32.4252 4.52274 35.0627 4.63899C37.4981 4.74483 38.8237 5.14837 39.7043 5.48899C40.8727 5.93899 41.7043 6.47941 42.5827 7.35358C43.4612 8.22733 44.0027 9.05691 44.4587 10.2259C44.8031 11.1044 45.2122 12.4259 45.3272 14.864C45.4527 17.5005 45.4812 18.2911 45.4931 24.964C45.5052 31.6369 45.4816 32.4294 45.366 35.064C45.2598 37.5015 44.8556 38.8255 44.516 39.7086C44.066 40.8761 43.5237 41.7086 42.6506 42.5865C41.7777 43.4646 40.9462 44.0055 39.7791 44.4615C38.8991 44.805 37.5756 45.215 35.1412 45.3311C32.5045 45.455 31.7145 45.4811 25.0385 45.4957C18.3625 45.5102 17.5745 45.4832 14.9381 45.369ZM35.3187 11.6384C35.3197 12.2318 35.4966 12.8115 35.8272 13.3044C36.1577 13.7972 36.6269 14.1809 37.1756 14.407C37.7242 14.6331 38.3276 14.6915 38.9093 14.5746C39.4911 14.4578 40.0252 14.1711 40.444 13.7507C40.8628 13.3303 41.1475 12.7952 41.2622 12.213C41.3768 11.6307 41.3162 11.0276 41.0881 10.4798C40.8599 9.93205 40.4744 9.46425 39.9803 9.13557C39.4863 8.8069 38.9059 8.63213 38.3125 8.63337C37.517 8.63503 36.7548 8.95251 36.1934 9.51602C35.632 10.0795 35.3174 10.8429 35.3187 11.6384ZM12.1635 25.025C12.1775 32.115 17.9356 37.8494 25.0239 37.8361C32.1127 37.8225 37.851 32.065 37.8377 24.975C37.8241 17.885 32.0648 12.149 24.9752 12.163C17.8856 12.1769 12.1502 17.9359 12.1635 25.025ZM16.6666 25.0161C16.6634 23.3679 17.1489 21.7558 18.0619 20.3836C18.9749 19.0114 20.2742 17.9407 21.7957 17.307C23.3171 16.6732 24.9923 16.5049 26.6095 16.8232C28.2266 17.1416 29.713 17.9323 30.8808 19.0954C32.0485 20.2585 32.8451 21.7418 33.1699 23.3576C33.4947 24.9735 33.333 26.6493 32.7053 28.1733C32.0776 29.6973 31.0121 31.0009 29.6435 31.9193C28.275 32.8377 26.6648 33.3297 25.0166 33.333C23.9222 33.3353 22.8381 33.1219 21.8262 32.7052C20.8142 32.2885 19.8943 31.6765 19.1189 30.9041C18.3435 30.1318 17.7278 29.2143 17.3071 28.204C16.8863 27.1938 16.6687 26.1105 16.6666 25.0161Z" fill="white"/>
</g>
<defs>
<clipPath id="clip0_1101_803">
<rect width="50" height="50" fill="white"/>
</clipPath>
</defs>
</svg>
