<svg width="1371" height="500" viewBox="0 0 1371 500" fill="none" xmlns="http://www.w3.org/2000/svg">
<path d="M191.367 324.118C192.693 313.002 195.668 300.254 200.199 286.226C204.933 271.776 210.533 257.705 216.959 244.113C223.648 229.846 231.116 216.063 239.319 202.842C247.006 190.307 255.544 178.466 264.856 167.425C273.393 157.391 281.497 149.831 288.837 144.954C295.91 140.244 302.006 138.237 306.952 138.965C311.897 139.693 315.424 143.124 317.459 149.207C319.559 155.446 319.955 164.295 318.629 175.411C317.303 186.527 314.328 199.327 309.797 213.303C305.063 227.755 299.46 241.826 293.027 255.416C286.351 269.688 278.893 283.475 270.695 296.698C263.005 309.23 254.468 321.071 245.158 332.114C236.566 342.149 228.489 349.708 221.159 354.585C214.077 359.296 207.98 361.302 203.044 360.575C198.108 359.847 194.572 356.415 192.537 350.332C190.428 344.093 190.041 335.244 191.367 324.128V324.118ZM190.658 324.95C185.132 370.931 209.518 374.55 245.047 333.019C280.576 291.488 313.84 220.571 319.329 174.59C324.817 128.608 300.478 124.99 264.995 166.521C229.512 208.052 196.202 278.968 190.704 324.95H190.658Z" stroke="#1FFFA1" stroke-width="2"/>
<path d="M185.215 322.86C187.683 310.663 191.919 296.864 197.813 281.963C203.896 266.692 210.833 251.872 218.58 237.593C226.524 222.826 235.243 208.607 244.688 195.012C253.374 182.344 262.918 170.458 273.236 159.46C282.657 149.592 291.314 142.407 298.967 138.112C306.334 133.953 312.504 132.653 317.229 134.234C321.953 135.814 325.038 140.202 326.373 147.273C327.755 154.552 327.202 164.493 324.734 176.68C322.266 188.867 318.03 202.676 312.136 217.577C306.053 232.85 299.113 247.67 291.36 261.946C283.418 276.714 274.703 290.933 265.261 304.528C256.555 317.195 246.992 329.082 236.657 340.079C227.236 349.948 218.58 357.133 210.936 361.427C203.569 365.587 197.399 366.886 192.674 365.306C187.95 363.725 184.865 359.337 183.53 352.266C182.148 344.988 182.691 335.047 185.169 322.86H185.215ZM184.395 323.671C174.182 374.092 197.491 381.902 236.455 341.078C275.419 300.254 315.295 226.301 325.508 175.869C335.721 125.437 312.412 117.638 273.439 158.462C234.466 199.286 194.608 273.239 184.395 323.671Z" stroke="#1FFFA1" stroke-width="2"/>
<path d="M179.358 320.489C183.747 305.414 189.294 290.801 195.935 276.816C203.43 260.839 211.767 245.383 220.901 230.533C230.113 215.401 240.097 200.888 250.803 187.068C260.505 174.418 271.07 162.646 282.4 151.859C292.613 142.303 301.795 135.638 309.687 132.019C317.321 128.525 323.436 128.026 327.875 130.522C332.314 133.017 334.837 138.383 335.39 146.473C335.961 154.854 334.377 165.803 330.684 179.019C326.299 194.096 320.752 208.709 314.107 222.693C306.648 238.662 298.345 254.111 289.243 268.955C280.028 284.084 270.044 298.597 259.34 312.42C249.638 325.07 239.074 336.842 227.744 347.629C217.531 357.185 208.349 363.85 200.448 367.469C192.822 370.963 186.707 371.462 182.269 368.966C177.83 366.47 175.306 361.105 174.754 353.015C174.183 344.634 175.767 333.684 179.46 320.468L179.358 320.489ZM178.622 321.248C163.344 375.912 185.206 388.203 227.43 348.72C269.655 309.238 316.198 232.924 331.476 178.271C346.754 123.617 324.891 111.316 282.667 150.798C240.443 190.281 193.789 266.615 178.539 321.269L178.622 321.248Z" stroke="#1FFFA1" stroke-width="2"/>
<path d="M173.934 316.943C179.739 300.958 186.684 285.532 194.701 270.816C212.555 237.737 233.631 207.016 257.535 179.227C268.186 166.74 279.711 155.24 291.996 144.84C302.945 135.773 312.587 129.742 320.655 126.934C328.455 124.22 334.468 124.605 338.511 128.078C342.554 131.551 344.451 137.925 344.129 147.034C343.807 156.465 341.108 168.434 336.117 182.596C330.312 198.581 323.367 214.008 315.35 228.724C306.46 245.258 296.735 261.201 286.221 276.473C275.739 291.803 264.485 306.44 252.516 320.312C241.861 332.8 230.334 344.299 218.046 354.699C207.105 363.767 197.463 369.798 189.387 372.605C181.596 375.319 175.573 374.935 171.539 371.462C167.506 367.989 165.6 361.614 165.913 352.505C166.244 343.074 168.942 331.106 173.934 316.943V316.943ZM173.013 317.681C152.366 376.276 172.331 393.371 217.613 355.864C262.895 318.357 316.336 240.442 336.983 181.858C357.63 123.274 337.664 106.169 292.382 143.675C247.101 181.182 193.66 259.087 173.013 317.681V317.681Z" stroke="#1FFFA1" stroke-width="2"/>
<path d="M168.979 312.139C176.244 295.37 184.63 279.251 194.065 263.922C204.383 246.977 215.534 230.699 227.467 215.164C239.188 199.803 251.688 185.22 264.902 171.491C277.961 157.973 290.467 146.889 302.08 138.466C313.693 130.043 323.712 124.813 331.862 122.931C339.736 121.111 345.538 122.463 349.111 126.955C352.684 131.447 353.854 138.861 352.583 148.968C351.257 159.439 347.371 172.365 341.007 187.442C333.75 204.215 325.363 220.335 315.921 235.659C305.61 252.607 294.461 268.885 282.529 284.417C270.808 299.779 258.308 314.361 245.093 328.09C232.035 341.608 219.529 352.693 207.916 361.115C196.303 369.538 186.284 374.768 178.133 376.65C170.26 378.47 164.458 377.118 160.885 372.626C157.311 368.134 156.142 360.72 157.413 350.613C158.73 340.142 162.625 327.217 168.979 312.139V312.139ZM168.059 312.836C141.766 374.987 159.393 397.135 207.419 362.311C255.445 327.487 315.673 248.855 341.965 186.704C368.257 124.553 350.631 102.404 302.605 137.229C254.579 172.053 194.323 250.685 168.031 312.836H168.059Z" stroke="#1FFFA1" stroke-width="2"/>
<path d="M164.724 306.035C173.473 288.609 183.338 271.927 194.24 256.123C205.973 238.948 218.544 222.524 231.896 206.928C244.809 191.715 258.505 177.375 272.914 163.983C287.05 150.954 300.403 140.493 312.587 132.892C324.771 125.291 335.094 121.049 343.217 120.196C351.063 119.385 356.57 121.797 359.572 127.36C362.574 132.923 362.924 141.367 360.622 152.441C358.228 163.879 353.071 177.73 345.298 193.504C336.546 210.929 326.681 227.61 315.783 243.416C304.044 260.587 291.473 277.01 278.126 292.611C265.204 307.828 251.495 322.168 237.072 335.556C222.945 348.585 209.591 359.046 197.398 366.647C185.206 374.248 174.91 378.512 166.778 379.364C158.932 380.175 153.425 377.763 150.422 372.2C147.42 366.637 147.061 358.193 149.373 347.119C151.767 335.681 156.924 321.83 164.697 306.056L164.724 306.035ZM163.693 306.68C131.571 371.95 146.306 399.329 196.763 367.916C247.22 336.502 314.134 258.14 346.293 192.88C378.451 127.62 363.643 100.21 313.232 131.624C262.821 163.037 195.861 241.399 163.693 306.659V306.68Z" stroke="#1FFFA1" stroke-width="2"/>
<path d="M161.179 298.548C171.426 280.633 182.784 263.561 195.171 247.461C208.301 230.243 222.275 213.867 237.026 198.412C251.089 183.561 265.944 169.695 281.507 156.892C296.647 144.539 310.737 134.941 323.408 128.359C336.08 121.777 346.551 118.595 354.554 118.907C362.28 119.219 367.373 122.754 369.712 129.43C372.051 136.105 371.499 145.558 368.073 157.557C364.537 170.035 358.053 184.593 348.817 200.991C338.573 218.906 327.217 235.978 314.835 252.078C301.71 269.3 287.739 285.675 272.988 301.127C258.924 315.982 244.066 329.848 228.499 342.648C213.368 355.001 199.269 364.599 186.606 371.181C173.943 377.763 163.463 380.945 155.46 380.633C147.734 380.321 142.632 376.786 140.302 370.11C137.972 363.434 138.516 353.982 141.941 341.982C145.478 329.556 151.961 314.947 161.198 298.548H161.179ZM160.157 299.089C121.957 366.886 133.451 399.766 185.851 372.522C238.251 345.279 311.658 268.248 349.83 200.45C388.002 132.653 376.536 99.7737 324.136 127.017C271.736 154.261 198.338 231.292 160.12 299.089H160.157Z" stroke="#1FFFA1" stroke-width="2"/>
<path d="M158.536 289.668C170.283 271.435 183.146 254.152 197.03 237.947C211.51 220.897 226.841 204.795 242.947 189.719C258.074 175.436 273.999 162.265 290.623 150.289C306.656 138.851 321.391 130.334 334.413 124.948C347.435 119.562 357.97 117.669 365.724 119.229C373.211 120.758 377.797 125.468 379.363 133.298C380.928 141.128 379.363 151.568 374.758 164.42C369.997 177.73 362.151 193.026 351.431 209.871C339.699 228.1 326.855 245.383 312.992 261.593C298.51 278.64 283.179 294.742 267.075 309.82C251.948 324.104 236.023 337.275 219.399 349.251C203.366 360.689 188.631 369.205 175.61 374.592C162.588 379.978 152.052 381.87 144.298 380.311C136.811 378.782 132.216 374.072 130.65 366.242C129.085 358.412 130.65 347.972 135.255 335.12C140.016 321.81 147.862 306.514 158.582 289.668H158.536ZM157.514 290.105C113.171 359.774 120.889 398.248 174.744 375.975C228.599 353.701 308.222 279.135 352.573 209.435C396.925 139.735 389.198 101.292 335.334 123.565C281.469 145.838 201.819 220.405 157.467 290.105H157.514Z" stroke="#1FFFA1" stroke-width="2"/>
<path d="M156.916 279.405C170.137 261.052 184.48 243.766 199.84 227.673C215.609 211.021 232.232 195.431 249.624 180.985C265.721 167.48 282.616 155.234 300.192 144.331C316.999 134.068 332.24 126.841 345.483 122.848C358.726 118.855 369.169 118.335 376.536 121.35C383.655 124.231 387.587 130.21 388.315 139.152C389.042 148.095 386.409 159.533 380.579 173.165C374.538 187.265 365.283 203.102 353.062 220.239C339.84 238.592 325.497 255.878 310.138 271.97C294.367 288.62 277.743 304.21 260.353 318.659C244.275 332.125 227.401 344.337 209.85 355.209C193.034 365.472 177.802 372.699 164.559 376.692C151.316 380.685 140.781 381.205 133.414 378.241C126.295 375.361 122.363 369.382 121.626 360.439C120.889 351.497 123.541 340.059 129.371 326.427C135.44 312.326 144.695 296.49 156.916 279.405ZM155.829 279.728C105.298 350.603 108.742 394.671 163.509 378.158C218.276 361.646 303.636 290.812 354.14 219.916C404.643 149.02 401.226 104.973 346.459 121.486C291.692 137.998 206.323 208.832 155.829 279.728V279.728Z" stroke="#1FFFA1" stroke-width="2"/>
<path d="M156.437 267.593C171.099 249.334 186.889 232.272 203.689 216.537C220.664 200.516 238.502 185.701 257.103 172.177C274.034 159.71 291.761 148.678 310.138 139.173C327.58 130.324 343.172 124.615 356.479 122.213C369.786 119.811 380.008 120.841 386.869 125.333C393.5 129.638 396.723 136.927 396.456 147.013C396.189 157.1 392.45 169.443 385.322 183.74C377.955 198.537 367.272 214.769 353.569 231.989C338.91 250.247 323.123 267.309 306.326 283.044C289.35 299.062 271.511 313.877 252.912 327.404C235.966 339.873 218.223 350.905 199.831 360.408C182.388 369.257 166.797 374.966 153.49 377.368C140.183 379.77 129.951 378.74 123.1 374.248C116.478 369.943 113.255 362.654 113.522 352.568C113.789 342.481 117.546 330.139 124.665 315.799C132.033 301.002 142.724 284.771 156.418 267.551L156.437 267.593ZM155.332 267.748C98.6676 338.977 97.3139 388.65 152.394 378.699C207.474 368.748 298.001 302.936 354.665 231.708C411.329 160.479 412.683 110.806 357.602 120.757C302.522 130.709 211.996 196.561 155.332 267.79V267.748Z" stroke="#1FFFA1" stroke-width="2"/>
<path d="M157.192 254.449C173.222 236.512 190.394 219.923 208.57 204.818C226.625 189.682 245.545 175.909 265.207 163.588C282.873 152.369 301.318 142.792 320.36 134.951C338.272 127.776 354.048 123.825 367.254 123.201C380.46 122.577 390.277 125.281 396.502 131.343C402.497 137.166 404.864 145.797 403.538 156.996C402.212 168.195 397.257 181.39 388.803 196.229C380.064 211.598 367.944 228.048 352.795 245.101C336.761 263.034 319.59 279.622 301.417 294.732C283.361 309.866 264.441 323.639 244.781 335.962C227.114 347.168 208.668 356.731 189.627 364.557C171.724 371.732 155.949 375.683 142.743 376.307C129.537 376.931 119.72 374.228 113.494 368.165C107.499 362.342 105.132 353.712 106.459 342.513C107.785 331.314 112.739 318.118 121.193 303.28C129.933 287.911 142.043 271.461 157.201 254.408L157.192 254.449ZM156.115 254.408C93.4276 325.158 86.8891 380.332 141.509 377.742C196.129 375.153 291.204 315.799 353.891 245.091C416.578 174.382 423.107 119.271 368.488 121.808C313.868 124.345 218.783 183.74 156.105 254.449L156.115 254.408Z" stroke="#1FFFA1" stroke-width="2"/>
<path d="M159.328 239.819C176.65 222.451 195.122 206.603 214.583 192.413C233.601 178.425 253.479 165.988 274.065 155.197C294.113 144.736 313.186 136.875 330.757 131.832C348.936 126.633 364.711 124.626 377.622 125.977C390.534 127.329 399.826 131.894 405.25 139.579C410.471 146.993 411.862 156.985 409.385 169.266C406.907 181.546 400.691 195.511 390.911 210.755C380.781 226.529 367.253 242.99 350.695 259.721C333.374 277.091 314.901 292.939 295.439 307.127C276.426 321.117 256.551 333.554 235.966 344.343C215.918 354.804 196.846 362.665 179.275 367.708C161.087 372.907 145.32 374.914 132.4 373.562C119.479 372.21 110.206 367.645 104.772 359.961C99.5599 352.547 98.1693 342.554 100.647 330.274C103.124 317.993 109.34 304.028 119.12 288.784C129.25 273.01 142.779 256.55 159.328 239.819V239.819ZM158.278 239.704C89.7982 308.832 77.596 369.382 131.019 374.935C184.441 380.487 283.246 328.964 351.717 259.835C420.187 190.707 432.398 130.158 378.976 124.657C325.553 119.156 226.739 170.576 158.278 239.704Z" stroke="#1FFFA1" stroke-width="2"/>
<path d="M162.956 223.878C199.388 191.437 240.062 165.583 283.523 147.242C304.133 138.684 323.528 132.861 341.154 129.95C359.407 126.934 374.961 127.173 387.384 130.667C399.807 134.161 408.363 140.701 412.811 150.102C417.093 159.19 417.415 170.545 413.686 183.855C409.956 197.164 402.45 211.785 391.316 227.268C379.796 243.302 364.886 259.575 347.002 275.662C328.514 292.198 308.868 307.013 288.256 319.959C268.426 332.546 247.753 343.358 226.426 352.297C205.806 360.855 186.421 366.678 168.786 369.59C150.542 372.605 134.988 372.366 122.555 368.872C110.123 365.379 101.586 358.838 97.138 349.438C92.8465 340.35 92.5334 328.995 96.2631 315.685C99.9929 302.375 107.517 287.724 118.678 272.272C130.199 256.237 145.109 239.964 162.984 223.878H162.956ZM161.971 223.597C88.0209 290.146 69.7407 355.729 121.137 370.214C172.534 384.699 274.139 342.471 348.079 275.963C422.02 209.455 440.3 143.831 388.913 129.346C337.526 114.862 235.884 157.089 161.962 223.597H161.971Z" stroke="#1FFFA1" stroke-width="2"/>
<path d="M168.178 206.669C187.723 191.204 208.431 177.703 230.064 166.323C250.521 155.423 271.783 146.564 293.608 139.849C314.568 133.485 334.054 129.991 351.515 129.451C369.593 128.91 384.668 131.53 396.428 137.395C408.188 143.26 415.767 151.828 419.101 163.006C422.315 173.799 421.403 186.506 416.384 200.783C411.365 215.06 402.497 230.179 390.028 245.735C377.135 261.832 360.89 277.679 341.79 292.85C322.243 308.311 301.535 321.811 279.904 333.196C259.447 344.094 238.185 352.953 216.361 359.67C195.401 366.034 175.914 369.528 158.454 370.068C140.367 370.609 125.3 367.937 113.54 362.124C101.78 356.311 94.201 347.691 90.8581 336.513C87.6441 325.719 88.565 313.013 93.6208 298.736C98.6767 284.459 107.499 269.34 119.978 253.784C132.87 237.687 149.115 221.84 168.215 206.669H168.178ZM167.294 206.19C88.3071 268.924 63.5712 339.289 112.039 363.361C160.507 387.434 263.853 356.083 342.84 293.349C421.827 230.616 446.563 160.25 398.095 136.178C349.627 112.106 246.282 143.457 167.285 206.19H167.294Z" stroke="#1FFFA1" stroke-width="2"/>
<path d="M175.076 188.274C195.514 174.174 217.101 162.314 239.54 152.857C260.47 143.893 282.13 137.275 304.207 133.1C325.278 129.253 344.608 128.369 361.654 130.48C379.299 132.726 393.748 138.04 404.532 146.306C415.316 154.573 421.836 165.398 423.871 178.364C425.86 190.842 423.622 204.932 417.231 220.083C410.84 235.233 400.655 250.716 386.841 266.137C372.576 282.088 355.106 297.259 334.92 311.224C314.481 325.324 292.895 337.184 270.455 346.641C249.524 355.587 227.864 362.187 205.788 366.346C184.718 370.193 165.388 371.077 148.332 368.966C130.651 366.814 116.247 361.552 105.454 353.233C94.661 344.915 88.1593 334.142 86.1149 321.175C84.1349 308.697 86.3635 294.608 92.7639 279.457C99.1643 264.307 109.386 248.824 123.154 233.403C137.428 217.452 154.898 202.281 175.085 188.316L175.076 188.274ZM174.164 187.64C90.6826 245.351 59.1688 319.959 103.797 354.336C148.424 388.713 252.304 369.694 335.804 311.942C419.303 254.189 450.817 179.581 406.189 145.204C361.562 110.827 257.737 129.846 174.192 187.598L174.164 187.64Z" stroke="#1FFFA1" stroke-width="2"/>
<path d="M183.732 168.84C204.91 156.363 227.202 146.46 250.232 139.298C271.437 132.58 293.243 128.566 315.24 127.329C336.154 126.29 355.051 128.296 371.416 133.298C388.361 138.497 401.806 146.618 411.457 157.547C421.108 168.476 426.275 181.463 426.901 196.302C427.509 210.579 423.844 225.885 416.016 241.794C408.188 257.704 396.603 273.395 381.564 288.452C365.991 304.049 347.38 318.253 326.309 330.7C305.131 343.177 282.84 353.08 259.809 360.242C238.604 366.96 216.799 370.974 194.802 372.21C173.888 373.25 154.981 371.243 138.626 366.242C121.681 361.043 108.235 352.921 98.5934 341.993C88.9514 331.064 83.6837 318.025 83.0943 303.238C82.4865 288.961 86.1518 273.655 93.9704 257.745C101.789 241.836 113.393 226.145 128.431 211.088C144.004 195.491 162.606 181.286 183.732 168.84V168.84ZM182.94 167.935C95.5728 219.438 56.9771 297.821 96.8068 343.012C136.637 388.203 239.687 383.097 327.037 331.574C414.386 280.05 452.972 201.719 413.188 156.528C373.405 111.337 270.308 116.442 182.959 167.966L182.94 167.935Z" stroke="#1FFFA1" stroke-width="2"/>
<path d="M194.194 148.49C215.928 137.919 238.7 130.313 262.029 125.832C283.325 121.619 305.012 120.511 326.558 122.536C347.011 124.615 365.236 129.814 380.597 137.873C396.529 146.254 408.777 157.443 416.983 171.148C425.11 184.502 428.966 200.585 427.914 216.745C426.993 232.768 421.808 249.271 412.516 265.794C403.224 282.317 390.276 298.028 374.04 312.503C357.243 327.487 337.627 340.464 315.764 351.081C294.03 361.65 271.258 369.256 247.93 373.739C226.634 377.952 204.947 379.059 183.401 377.035C162.938 374.955 144.722 369.756 129.361 361.697C113.42 353.316 101.181 342.128 92.9757 328.423C84.8504 315.068 81.001 298.984 82.0628 282.826C82.9838 266.802 88.1685 250.29 97.4974 233.777C106.826 217.264 119.738 201.542 135.964 187.068C153.8 171.393 173.376 158.424 194.194 148.49V148.49ZM193.54 147.346C103.078 191.289 57.2533 272.74 91.1984 329.317C125.143 385.894 225.984 396.116 316.455 352.193C406.926 308.271 452.751 226.821 418.797 170.222C384.843 113.624 284.002 103.444 193.54 147.346Z" stroke="#1FFFA1" stroke-width="2"/>
<path d="M206.571 127.423C228.675 119.024 251.687 114.053 274.977 112.647C296.179 111.241 317.45 113.364 338.105 118.948C357.795 124.428 374.942 132.986 389.069 144.403C403.693 156.216 414.422 170.586 420.961 187.099C427.492 203.568 429.516 221.865 426.772 239.642C424.184 257.371 417.397 274.996 406.594 291.966C395.792 308.936 381.545 324.482 364.232 338.104C345.51 352.653 325.043 364.107 303.451 372.117C281.347 380.516 258.335 385.486 235.045 386.893C213.84 388.298 192.566 386.175 171.907 380.591C152.218 375.111 135.071 366.553 120.953 355.136C106.301 343.324 95.5631 328.953 89.0246 312.44C82.4929 295.972 80.4724 277.673 83.2228 259.898C85.8106 242.168 92.5977 224.543 103.391 207.573C114.184 190.603 128.449 175.058 145.753 161.436C164.474 146.885 184.941 135.431 206.534 127.423H206.571ZM205.99 126.071C113.355 161.061 60.1445 244.82 87.1919 313.137C114.239 381.454 211.286 408.469 303.958 373.448C396.63 338.426 449.85 254.698 422.802 186.381C395.755 118.064 298.709 91.0493 206.027 126.071H205.99Z" stroke="#1FFFA1" stroke-width="2"/>
<path d="M220.818 105.836C243.127 99.8998 266.116 97.9073 288.966 99.9296C309.91 101.69 330.449 107.365 349.747 116.723C368.322 125.873 384.106 138.081 396.64 152.992C409.253 167.719 418.364 185.808 423.126 205.577C427.743 225.063 427.774 245.572 423.218 265.076C418.825 284.448 410.325 303.03 398.049 320.312C385.773 337.594 370.237 352.703 351.939 365.212C332.481 378.4 311.299 388.03 289.178 393.745C266.869 399.681 243.88 401.674 221.03 399.652C200.086 397.891 179.547 392.216 160.249 382.858C141.674 373.708 125.89 361.5 113.356 346.589C100.399 331.116 91.4751 313.428 86.8613 293.963C82.249 274.476 82.2173 253.968 86.7692 234.463C91.1712 215.091 99.662 196.509 111.938 179.227C124.214 161.945 139.759 146.878 158.058 134.369C177.514 121.18 198.696 111.55 220.818 105.836V105.836ZM220.441 104.245C126.553 128.941 65.9196 214.114 85.001 294.493C104.082 374.872 195.668 419.991 289.556 395.295C383.443 370.599 444.076 285.426 424.995 205.005C405.914 124.584 314.328 79.5488 220.441 104.245V104.245Z" stroke="#1FFFA1" stroke-width="2"/>
<path d="M236.971 83.9682C259.307 80.7953 281.964 82.1333 303.885 87.9195C324.363 93.2476 343.805 102.763 361.249 115.995C377.891 128.542 392.107 144.768 403.04 163.692C413.93 182.588 420.853 204.042 423.282 226.419C425.711 248.795 423.582 271.503 417.057 292.809C410.506 314.161 400.186 333.79 386.722 350.509C372.642 368.128 355.821 382.684 337.093 393.454C296.67 416.701 250.287 423.132 206.083 411.62C185.608 406.292 166.169 396.777 148.728 383.544C132.087 370.997 117.87 354.772 106.937 335.847C96.0432 316.954 89.115 295.501 86.6811 273.124C84.2472 250.748 86.3719 228.039 92.8932 206.731C99.4607 185.374 109.8 165.744 123.283 149.031C137.363 131.411 154.184 116.855 172.912 106.085C192.944 94.4826 214.644 86.9936 236.999 83.9682H236.971ZM236.796 82.138C142.862 95.1568 74.8063 180.777 84.8443 273.364C94.8823 365.951 179.257 430.431 273.228 417.402C367.198 404.372 435.217 318.763 425.179 226.176C415.141 133.589 330.739 69.1089 236.768 82.138H236.796Z" stroke="#1FFFA1" stroke-width="2"/>
<path d="M254.975 62.0797C293.324 62.1071 330.486 77.1016 360.165 104.523C389.845 131.944 410.217 170.107 417.831 212.546C425.445 254.984 419.833 299.091 401.946 337.392C384.058 375.694 354.995 405.837 319.679 422.715C279.123 441.679 233.57 441.765 192.958 422.954C152.346 404.143 119.97 367.962 102.891 322.303C85.8122 276.644 85.417 225.212 101.792 179.225C118.166 133.238 149.982 96.428 190.299 76.8245C210.76 67.0487 232.757 62.0338 254.975 62.0797V62.0797ZM254.975 60C221.734 60 189.24 71.1298 161.602 91.982C133.963 112.834 112.421 142.472 99.7007 177.148C86.98 211.824 83.6517 249.98 90.1367 286.792C96.6216 323.604 112.629 357.418 136.133 383.957C159.638 410.497 189.585 428.571 222.187 435.893C254.789 443.216 288.581 439.458 319.292 425.094C350.002 410.731 376.251 386.408 394.718 355.2C413.186 323.993 423.043 287.303 423.043 249.77C423.043 224.849 418.695 200.172 410.249 177.148C401.803 154.124 389.423 133.204 373.817 115.582C358.21 97.9605 339.683 83.9822 319.292 74.4454C298.901 64.9085 277.046 60 254.975 60V60Z" stroke="#1FFFA1" stroke-width="2"/>
<path d="M528.4 171.4H566.8L604.6 270.6L642.8 171.4H680.8V313H656.8V195.4H656.4L613.4 313H595.8L552.8 195.4H552.4V313H528.4V171.4ZM711.156 217H735.156V313H711.156V217ZM707.756 184.4C707.756 180.533 709.156 177.2 711.956 174.4C714.89 171.467 718.556 170 722.956 170C727.356 170 731.023 171.4 733.956 174.2C737.023 176.867 738.556 180.267 738.556 184.4C738.556 188.533 737.023 192 733.956 194.8C731.023 197.467 727.356 198.8 722.956 198.8C718.556 198.8 714.89 197.4 711.956 194.6C709.156 191.667 707.756 188.267 707.756 184.4ZM763.109 161.8H787.109V313H763.109V161.8ZM815.258 161.8H839.258V313H815.258V161.8ZM938.411 201.8C935.744 197.933 932.144 195.133 927.611 193.4C923.211 191.533 918.544 190.6 913.611 190.6C910.678 190.6 907.811 190.933 905.011 191.6C902.344 192.267 899.878 193.333 897.611 194.8C895.478 196.267 893.744 198.2 892.411 200.6C891.078 202.867 890.411 205.6 890.411 208.8C890.411 213.6 892.078 217.267 895.411 219.8C898.744 222.333 902.878 224.533 907.811 226.4C912.744 228.267 918.144 230.067 924.011 231.8C929.878 233.533 935.278 235.933 940.211 239C945.144 242.067 949.278 246.133 952.611 251.2C955.944 256.267 957.611 263 957.611 271.4C957.611 279 956.211 285.667 953.411 291.4C950.611 297 946.811 301.667 942.011 305.4C937.344 309.133 931.878 311.933 925.611 313.8C919.344 315.667 912.744 316.6 905.811 316.6C897.011 316.6 888.544 315.133 880.411 312.2C872.278 309.267 865.278 304.333 859.411 297.4L878.411 279C881.478 283.667 885.478 287.333 890.411 290C895.478 292.533 900.811 293.8 906.411 293.8C909.344 293.8 912.278 293.4 915.211 292.6C918.144 291.8 920.811 290.6 923.211 289C925.611 287.4 927.544 285.4 929.011 283C930.478 280.467 931.211 277.6 931.211 274.4C931.211 269.2 929.544 265.2 926.211 262.4C922.878 259.6 918.744 257.267 913.811 255.4C908.878 253.4 903.478 251.533 897.611 249.8C891.744 248.067 886.344 245.733 881.411 242.8C876.478 239.733 872.344 235.733 869.011 230.8C865.678 225.733 864.011 219 864.011 210.6C864.011 203.267 865.478 196.933 868.411 191.6C871.478 186.267 875.411 181.867 880.211 178.4C885.144 174.8 890.744 172.133 897.011 170.4C903.278 168.667 909.678 167.8 916.211 167.8C923.678 167.8 930.878 168.933 937.811 171.2C944.878 173.467 951.211 177.2 956.811 182.4L938.411 201.8ZM1041.65 299.8H1041.05C1037.59 305.267 1033.19 309.267 1027.85 311.8C1022.52 314.2 1016.65 315.4 1010.25 315.4C1005.85 315.4 1001.52 314.8 997.255 313.6C993.121 312.4 989.388 310.6 986.055 308.2C982.855 305.8 980.255 302.8 978.255 299.2C976.255 295.6 975.255 291.4 975.255 286.6C975.255 281.4 976.188 277 978.055 273.4C979.921 269.667 982.388 266.6 985.455 264.2C988.655 261.667 992.321 259.667 996.455 258.2C1000.59 256.733 1004.85 255.667 1009.25 255C1013.79 254.2 1018.32 253.733 1022.85 253.6C1027.39 253.333 1031.65 253.2 1035.65 253.2H1041.65V250.6C1041.65 244.6 1039.59 240.133 1035.45 237.2C1031.32 234.133 1026.05 232.6 1019.65 232.6C1014.59 232.6 1009.85 233.533 1005.45 235.4C1001.05 237.133 997.255 239.533 994.055 242.6L981.455 230C986.788 224.533 992.988 220.6 1000.05 218.2C1007.25 215.8 1014.65 214.6 1022.25 214.6C1029.05 214.6 1034.79 215.4 1039.45 217C1044.12 218.467 1047.99 220.4 1051.05 222.8C1054.12 225.2 1056.45 228 1058.05 231.2C1059.79 234.267 1060.99 237.4 1061.65 240.6C1062.45 243.8 1062.92 246.933 1063.05 250C1063.19 252.933 1063.25 255.533 1063.25 257.8V313H1041.65V299.8ZM1040.25 270H1035.25C1031.92 270 1028.19 270.133 1024.05 270.4C1019.92 270.667 1015.99 271.333 1012.25 272.4C1008.65 273.333 1005.59 274.8 1003.05 276.8C1000.52 278.667 999.255 281.333 999.255 284.8C999.255 287.067 999.721 289 1000.65 290.6C1001.72 292.067 1003.05 293.333 1004.65 294.4C1006.25 295.467 1008.05 296.267 1010.05 296.8C1012.05 297.2 1014.05 297.4 1016.05 297.4C1024.32 297.4 1030.39 295.467 1034.25 291.6C1038.25 287.6 1040.25 282.2 1040.25 275.4V270ZM1089.08 217H1111.88V231.4H1112.28C1115.74 225.533 1120.41 221.267 1126.28 218.6C1132.14 215.933 1138.48 214.6 1145.28 214.6C1152.61 214.6 1159.21 215.933 1165.08 218.6C1170.94 221.133 1175.94 224.667 1180.08 229.2C1184.21 233.733 1187.34 239.067 1189.48 245.2C1191.61 251.333 1192.68 257.933 1192.68 265C1192.68 272.067 1191.54 278.667 1189.28 284.8C1187.01 290.933 1183.81 296.267 1179.68 300.8C1175.68 305.333 1170.81 308.933 1165.08 311.6C1159.34 314.133 1153.08 315.4 1146.28 315.4C1141.74 315.4 1137.74 314.933 1134.28 314C1130.81 313.067 1127.74 311.867 1125.08 310.4C1122.41 308.933 1120.14 307.4 1118.28 305.8C1116.41 304.067 1114.88 302.4 1113.68 300.8H1113.08V358.6H1089.08V217ZM1168.68 265C1168.68 261.267 1168.01 257.667 1166.68 254.2C1165.48 250.733 1163.61 247.667 1161.08 245C1158.68 242.333 1155.74 240.2 1152.28 238.6C1148.81 237 1144.88 236.2 1140.48 236.2C1136.08 236.2 1132.14 237 1128.68 238.6C1125.21 240.2 1122.21 242.333 1119.68 245C1117.28 247.667 1115.41 250.733 1114.08 254.2C1112.88 257.667 1112.28 261.267 1112.28 265C1112.28 268.733 1112.88 272.333 1114.08 275.8C1115.41 279.267 1117.28 282.333 1119.68 285C1122.21 287.667 1125.21 289.8 1128.68 291.4C1132.14 293 1136.08 293.8 1140.48 293.8C1144.88 293.8 1148.81 293 1152.28 291.4C1155.74 289.8 1158.68 287.667 1161.08 285C1163.61 282.333 1165.48 279.267 1166.68 275.8C1168.01 272.333 1168.68 268.733 1168.68 265ZM1266.25 243.6C1261.59 237.067 1255.32 233.8 1247.45 233.8C1244.25 233.8 1241.12 234.6 1238.05 236.2C1234.99 237.8 1233.45 240.4 1233.45 244C1233.45 246.933 1234.72 249.067 1237.25 250.4C1239.79 251.733 1242.99 252.867 1246.85 253.8C1250.72 254.733 1254.85 255.733 1259.25 256.8C1263.79 257.733 1267.99 259.267 1271.85 261.4C1275.72 263.4 1278.92 266.2 1281.45 269.8C1283.99 273.4 1285.25 278.333 1285.25 284.6C1285.25 290.333 1283.99 295.2 1281.45 299.2C1279.05 303.067 1275.85 306.2 1271.85 308.6C1267.99 311 1263.59 312.733 1258.65 313.8C1253.72 314.867 1248.79 315.4 1243.85 315.4C1236.39 315.4 1229.52 314.333 1223.25 312.2C1216.99 310.067 1211.39 306.2 1206.45 300.6L1222.45 285.6C1225.52 289.067 1228.79 291.933 1232.25 294.2C1235.85 296.333 1240.19 297.4 1245.25 297.4C1246.99 297.4 1248.79 297.2 1250.65 296.8C1252.52 296.4 1254.25 295.733 1255.85 294.8C1257.45 293.867 1258.72 292.733 1259.65 291.4C1260.72 289.933 1261.25 288.267 1261.25 286.4C1261.25 283.067 1259.99 280.6 1257.45 279C1254.92 277.4 1251.72 276.133 1247.85 275.2C1243.99 274.133 1239.79 273.2 1235.25 272.4C1230.85 271.467 1226.72 270.067 1222.85 268.2C1218.99 266.2 1215.79 263.467 1213.25 260C1210.72 256.533 1209.45 251.733 1209.45 245.6C1209.45 240.267 1210.52 235.667 1212.65 231.8C1214.92 227.8 1217.85 224.533 1221.45 222C1225.05 219.467 1229.19 217.6 1233.85 216.4C1238.52 215.2 1243.25 214.6 1248.05 214.6C1254.45 214.6 1260.79 215.733 1267.05 218C1273.32 220.133 1278.39 223.867 1282.25 229.2L1266.25 243.6Z" fill="white"/>
</svg>
